<svg width="100%" height="100%" viewBox="0 0 256 256" version="1.1" xmlns="http://www.w3.org/2000/svg" xmlns:xlink="http://www.w3.org/1999/xlink" xml:space="preserve" style="fill-rule:evenodd;clip-rule:evenodd;stroke-linejoin:round;stroke-miterlimit:2;">
    <path d="M196,48C204.824,48 212,55.176 212,64L212,224C212,232.824 204.824,240 196,240L60,240C51.176,240 44,232.824 44,224L44,64C44,55.176 51.176,48 60,48L196,48Z" style="fill:#efcc57;"/>
    
    <path d="M164,36C164,31.584 160.416,28 156,28L100,28C95.584,28 92,31.584 92,36L92,56C92,60.416 95.584,64 100,64L156,64C160.416,64 164,60.416 164,56L164,36Z" style="fill:#53a255;"/>
    <path d="M180,48L172,48L172,56C172,64.824 164.824,72 156,72L100,72C91.176,72 84,64.824 84,56L84,48L76,48C71.584,48 68,51.584 68,56L68,76C68,80.416 71.584,84 76,84L180,84C184.416,84 188,80.416 188,76L188,56C188,51.584 184.416,48 180,48Z" style="fill:#53a255;"/>
    
    <g transform="matrix(1,0,0,1,0,12)">
        <path d="M128,100L80,144L96,144L96,200L160,200L160,144L176,144L128,100Z" style="fill:#53a255;fill-rule:nonzero;"/>
    </g>
</svg>
